<?xml version="1.0" encoding="utf-8" standalone="no"?>
<!DOCTYPE svg PUBLIC "-//W3C//DTD SVG 1.1//EN"
  "http://www.w3.org/Graphics/SVG/1.1/DTD/svg11.dtd">
<!-- Created with matplotlib (http://matplotlib.org/) -->
<svg height="263.44pt" version="1.1" viewBox="0 0 424.8 263.44" width="424.8pt" xmlns="http://www.w3.org/2000/svg" xmlns:xlink="http://www.w3.org/1999/xlink">
 <defs>
  <style type="text/css">
*{stroke-linecap:butt;stroke-linejoin:round;}
  </style>
 </defs>
 <g id="figure_1">
  <g id="patch_1">
   <path d="M 0 263.44 
L 424.8 263.44 
L 424.8 0 
L 0 0 
z
" style="fill:#ffffff;"/>
  </g>
  <g id="axes_1">
   <g id="patch_2">
    <path d="M 10.7 252.74 
L 414.1 252.74 
L 414.1 10.7 
L 10.7 10.7 
z
" style="fill:#ffffff;"/>
   </g>
   <g id="matplotlib.axis_1"/>
   <g id="matplotlib.axis_2"/>
   <g id="line2d_1">
    <path clip-path="url(#p3cfd19ddf1)" d="M 367.553846 131.72 
L 367.331232 127.565808 
L 366.743097 123.799703 
L 365.967177 120.653857 
L 365.489869 119.108419 
L 364.151814 115.563709 
L 363.202753 113.47688 
L 362.015863 111.178521 
L 360.358569 108.369529 
L 358.84914 106.100841 
L 355.47624 101.712061 
L 353.222531 99.155715 
L 350.080715 95.954316 
L 346.965215 93.103557 
L 343.032077 89.863172 
L 339.393817 87.151832 
L 337.29683 85.694198 
L 333.956124 83.509978 
L 327.32458 79.602208 
L 320.155458 75.904507 
L 315.292774 73.655826 
L 308.693789 70.891918 
L 301.373767 68.166116 
L 294.117605 65.775044 
L 288.078425 63.997234 
L 279.734736 61.829462 
L 273.107739 60.327972 
L 268.737915 59.437991 
L 258.583443 57.659542 
L 251.950827 56.705921 
L 240.236979 55.401885 
L 228.840579 54.57983 
L 219.445108 54.223093 
L 210.012343 54.152263 
L 200.530478 54.370419 
L 191.476571 54.851726 
L 183.537455 55.497186 
L 173.862611 56.574166 
L 168.70863 57.282476 
L 158.68819 58.939925 
L 148.280892 61.077492 
L 141.189859 62.796434 
L 133.234371 65.001339 
L 129.217654 66.23448 
L 123.161488 68.25898 
L 116.591947 70.700468 
L 111.925829 72.606429 
L 104.222174 76.109133 
L 98.29988 79.151287 
L 94.061577 81.54846 
L 88.866888 84.783111 
L 83.657545 88.424226 
L 79.326535 91.83213 
L 76.61794 94.183524 
L 72.658342 98.011748 
L 70.034207 100.878887 
L 67.340241 104.195547 
L 66.398061 105.470478 
L 64.672757 108.006198 
L 63.06465 110.674399 
L 60.844013 115.110524 
L 59.348049 118.993883 
L 58.693163 121.149709 
L 58.285901 122.753945 
L 57.753074 125.454135 
L 57.316643 129.381814 
L 57.246232 131.642016 
L 57.307555 133.902283 
L 57.68167 137.528495 
L 58.03111 139.513617 
L 58.966441 143.240187 
L 59.462424 144.785354 
L 61.171258 149.059144 
L 63.079927 152.792682 
L 63.678333 153.825325 
L 65.308721 156.40234 
L 68.194786 160.345043 
L 70.095758 162.632048 
L 73.916195 166.701966 
L 77.791122 170.298381 
L 81.233967 173.157265 
L 86.79316 177.260196 
L 90.256779 179.557615 
L 95.499345 182.727237 
L 101.480854 185.96403 
L 108.13567 189.16925 
L 113.86505 191.644076 
L 118.354033 193.421037 
L 125.786415 196.083815 
L 131.604928 197.948529 
L 138.825273 200.019845 
L 146.756042 202.011512 
L 153.507669 203.49118 
L 157.194074 204.220037 
L 165.668174 205.694408 
L 170.84539 206.462776 
L 180.716791 207.662232 
L 191.284802 208.575163 
L 202.525539 209.139653 
L 209.309513 209.281532 
L 220.508047 209.190923 
L 223.415531 209.101157 
L 234.041989 208.53852 
L 241.855811 207.886054 
L 252.65841 206.639918 
L 262.771107 205.094838 
L 273.094527 203.114836 
L 280.536369 201.416039 
L 289.170334 199.13482 
L 297.512415 196.582533 
L 305.100884 193.927841 
L 312.576056 190.959923 
L 317.433651 188.817829 
L 324.393979 185.409069 
L 328.83964 182.990182 
L 333.481858 180.227473 
L 339.397482 176.285557 
L 343.31156 173.357962 
L 347.49778 169.868741 
L 349.961252 167.600419 
L 353.731605 163.728177 
L 357.082115 159.736966 
L 359.843173 155.871743 
L 361.859347 152.544383 
L 363.547843 149.234605 
L 364.464088 147.12478 
L 365.263674 144.999807 
L 365.992043 142.699529 
L 366.929452 138.672777 
L 367.317771 135.997856 
L 367.553846 131.72 
L 367.553846 131.72 
" style="fill:none;stroke:#0000ff;stroke-linecap:square;"/>
   </g>
   <g id="patch_3">
    <path d="M 212.4 252.74 
L 212.4 10.7 
" style="fill:none;stroke:#000000;stroke-linecap:square;stroke-linejoin:miter;stroke-width:0.8;"/>
   </g>
   <g id="patch_4">
    <path d="M 10.7 131.72 
L 414.1 131.72 
" style="fill:none;stroke:#000000;stroke-linecap:square;stroke-linejoin:miter;stroke-width:0.8;"/>
   </g>
   <g id="text_1">
    <!-- $a$ -->
    <defs>
     <path d="M 17.390625 -1.125 
Q 11.078125 -1.125 7.4375 3.640625 
Q 3.8125 8.40625 3.8125 14.890625 
Q 3.8125 21.296875 7.125 28.171875 
Q 10.453125 35.0625 16.09375 39.625 
Q 21.734375 44.1875 28.21875 44.1875 
Q 31.203125 44.1875 33.546875 42.578125 
Q 35.890625 40.96875 37.203125 38.1875 
Q 38.328125 42.1875 41.609375 42.1875 
Q 42.875 42.1875 43.71875 41.421875 
Q 44.578125 40.671875 44.578125 39.40625 
Q 44.578125 39.109375 44.546875 38.953125 
Q 44.53125 38.8125 44.484375 38.625 
L 37.5 10.6875 
Q 36.8125 7.71875 36.8125 5.8125 
Q 36.8125 1.515625 39.703125 1.515625 
Q 42.828125 1.515625 44.453125 5.484375 
Q 46.09375 9.46875 47.21875 14.703125 
Q 47.40625 15.28125 48 15.28125 
L 49.21875 15.28125 
Q 49.609375 15.28125 49.84375 14.9375 
Q 50.09375 14.59375 50.09375 14.3125 
Q 48.34375 7.328125 46.265625 3.09375 
Q 44.1875 -1.125 39.5 -1.125 
Q 36.140625 -1.125 33.546875 0.84375 
Q 30.953125 2.828125 30.328125 6.109375 
Q 23.875 -1.125 17.390625 -1.125 
z
M 17.484375 1.515625 
Q 21.09375 1.515625 24.484375 4.21875 
Q 27.875 6.9375 30.328125 10.59375 
Q 30.421875 10.6875 30.421875 10.890625 
L 35.796875 32.625 
L 35.890625 32.90625 
Q 35.296875 36.46875 33.3125 39.03125 
Q 31.34375 41.609375 27.984375 41.609375 
Q 24.609375 41.609375 21.703125 38.84375 
Q 18.796875 36.078125 16.796875 32.328125 
Q 14.84375 28.328125 13.0625 21.34375 
Q 11.28125 14.359375 11.28125 10.5 
Q 11.28125 7.03125 12.765625 4.265625 
Q 14.265625 1.515625 17.484375 1.515625 
z
" id="Cmmi10-61"/>
    </defs>
    <g style="fill:#0000ff;" transform="translate(372.131538 127.273558)scale(0.12 -0.12)">
     <use transform="translate(0 0.8125)" xlink:href="#Cmmi10-61"/>
    </g>
   </g>
   <g id="text_2">
    <!-- $b$ -->
    <defs>
     <path d="M 17.28125 -1.125 
Q 11.234375 -1.125 7.859375 3.609375 
Q 4.5 8.34375 4.5 14.703125 
Q 4.5 15.625 4.953125 18.328125 
Q 5.421875 21.046875 5.421875 21.6875 
L 15.09375 60.5 
Q 15.484375 62.203125 15.578125 63.1875 
Q 15.578125 64.796875 9.078125 64.796875 
Q 8.109375 64.796875 8.109375 66.109375 
Q 8.15625 66.359375 8.328125 66.984375 
Q 8.5 67.625 8.765625 67.96875 
Q 9.03125 68.3125 9.515625 68.3125 
L 23 69.390625 
Q 24.21875 69.390625 24.21875 68.109375 
L 16.796875 38.625 
Q 22.46875 44.1875 28.21875 44.1875 
Q 32.46875 44.1875 35.515625 41.9375 
Q 38.578125 39.703125 40.09375 36.03125 
Q 41.609375 32.375 41.609375 28.21875 
Q 41.609375 23.390625 39.71875 18.234375 
Q 37.84375 13.09375 34.515625 8.671875 
Q 31.203125 4.25 26.75 1.5625 
Q 22.3125 -1.125 17.28125 -1.125 
z
M 17.484375 1.515625 
Q 20.90625 1.515625 23.875 4.375 
Q 26.859375 7.234375 28.71875 10.796875 
Q 30.71875 14.796875 32.453125 21.65625 
Q 34.1875 28.515625 34.1875 32.625 
Q 34.1875 36.1875 32.6875 38.890625 
Q 31.203125 41.609375 27.984375 41.609375 
Q 24.359375 41.609375 21.0625 38.9375 
Q 17.78125 36.28125 15.28125 32.625 
L 12.5 21.296875 
Q 10.890625 14.984375 10.796875 11.1875 
Q 10.796875 7.421875 12.421875 4.46875 
Q 14.0625 1.515625 17.484375 1.515625 
z
" id="Cmmi10-62"/>
    </defs>
    <g style="fill:#0000ff;" transform="translate(217.577692 49.696635)scale(0.12 -0.12)">
     <use transform="translate(0 0.609375)" xlink:href="#Cmmi10-62"/>
    </g>
   </g>
  </g>
 </g>
 <defs>
  <clipPath id="p3cfd19ddf1">
   <rect height="242.04" width="403.4" x="10.7" y="10.7"/>
  </clipPath>
 </defs>
</svg>
